<!-- <svg id="logo-31" width="104" height="74" viewBox="0 0 104 74" fill="none" xmlns="http://www.w3.org/2000/svg"> <path d="M8.47167 67.076V52H6V67.076H8.47167Z" class="cneutral" fill="#152C4F"></path> <path d="M9.98449 62.0507C9.98449 65.1307 12.051 67.3191 15.1912 67.3191C18.3314 67.3191 20.3979 65.1307 20.3979 62.0507C20.3979 58.9706 18.3314 56.7822 15.1912 56.7822C12.051 56.7822 9.98449 58.9706 9.98449 62.0507ZM12.4764 62.0507C12.4764 60.2472 13.5502 58.9909 15.1912 58.9909C16.8322 58.9909 17.906 60.2472 17.906 62.0507C17.906 63.8338 16.8322 65.1104 15.1912 65.1104C13.5502 65.1104 12.4764 63.8338 12.4764 62.0507Z" class="cneutral" fill="#152C4F"></path> <path d="M21.2292 61.848C21.2292 64.766 23.1133 66.8734 25.9294 66.8734C27.3881 66.8734 28.6442 66.2857 29.2722 65.3131V67.0152C29.2722 68.6565 28.239 69.7508 26.5169 69.7508C24.9772 69.7508 23.9237 69.001 23.7819 67.6839H21.29C21.6141 70.2979 23.6198 72 26.3751 72C29.6167 72 31.6831 69.8723 31.6831 66.5694V57.0659H29.4951L29.3533 58.4235C28.7455 57.3698 27.4894 56.7416 26.0104 56.7416C23.1538 56.7416 21.2292 58.9098 21.2292 61.848ZM23.7414 61.7872C23.7414 60.1256 24.7949 58.9098 26.3549 58.9098C28.0567 58.9098 29.1912 60.1459 29.1912 61.7872C29.1912 63.4488 28.0567 64.7254 26.3549 64.7254C24.8151 64.7254 23.7414 63.4691 23.7414 61.7872Z" class="cneutral" fill="#152C4F"></path> <path d="M32.9063 62.0507C32.9063 65.1307 34.9728 67.3191 38.113 67.3191C41.2532 67.3191 43.3197 65.1307 43.3197 62.0507C43.3197 58.9706 41.2532 56.7822 38.113 56.7822C34.9728 56.7822 32.9063 58.9706 32.9063 62.0507ZM35.3982 62.0507C35.3982 60.2472 36.472 58.9909 38.113 58.9909C39.754 58.9909 40.8278 60.2472 40.8278 62.0507C40.8278 63.8338 39.754 65.1104 38.113 65.1104C36.472 65.1104 35.3982 63.8338 35.3982 62.0507Z" class="cneutral" fill="#152C4F"></path> <path d="M45.9946 55.0193C46.805 55.0193 47.4736 54.3708 47.4736 53.54C47.4736 52.7295 46.805 52.0811 45.9946 52.0811C45.164 52.0811 44.5359 52.7295 44.5359 53.54C44.5359 54.3708 45.164 55.0193 45.9946 55.0193ZM44.7588 67.076H47.2305V57.0659H44.7588V67.076Z" class="cneutral" fill="#152C4F"></path> <path d="M49.3959 71.7163H51.8067V65.6981C52.4348 66.7315 53.7922 67.3394 55.2914 67.3394C58.2493 67.3394 60.0119 65.0699 59.9713 61.9493C59.9106 58.8085 58.1075 56.7619 55.2711 56.7619C53.7517 56.7619 52.374 57.4306 51.7662 58.5856L51.6244 57.0659H49.3959V71.7163ZM51.908 62.0709C51.908 60.2675 53.0021 59.0111 54.7241 59.0111C56.4462 59.0111 57.4794 60.2877 57.4794 62.0709C57.4794 63.8541 56.4462 65.1104 54.7241 65.1104C53.0021 65.1104 51.908 63.8744 51.908 62.0709Z" class="cneutral" fill="#152C4F"></path> <path d="M60.5989 64.077C60.68 66.0628 62.2197 67.3394 64.6103 67.3394C66.9604 67.3394 68.5609 66.0831 68.5609 64.1378C68.5609 62.6991 67.6695 61.7264 66.0285 61.3212L64.2659 60.8956C63.5163 60.693 63.0098 60.4296 63.0098 59.7812C63.0098 59.0922 63.5568 58.6059 64.4482 58.6059C65.3802 58.6059 65.988 59.1327 65.988 60.0041H68.2368C68.1557 58.0182 66.6768 56.7619 64.509 56.7619C62.3615 56.7619 60.761 58.0182 60.761 59.923C60.761 61.2199 61.5106 62.2938 63.4353 62.8004L65.1776 63.2462C65.8259 63.4286 66.2311 63.7325 66.2311 64.2999C66.2311 65.0902 65.4815 65.4549 64.5698 65.4549C63.4758 65.4549 62.8477 64.9483 62.8477 64.077H60.5989Z" class="cneutral" fill="#152C4F"></path> <path d="M73.6877 67.3394C75.0451 67.3394 76.3417 66.7112 76.9292 65.7791L77.0913 67.076H79.4009V57.0659H76.9292V62.3141C76.9292 64.1175 76.2404 65.1307 74.6197 65.1307C73.3636 65.1307 72.4924 64.5228 72.4924 62.4559V57.0659H70.0207V63.3273C70.0207 65.7183 71.3173 67.3394 73.6877 67.3394Z" class="cneutral" fill="#152C4F"></path> <path d="M84.0541 67.076V61.3212C84.0541 59.7001 85.0063 58.9301 86.1814 58.9301C87.3564 58.9301 88.1263 59.6798 88.1263 61.0983V67.076H90.5372V61.3414C90.5372 59.7001 91.4691 58.9301 92.6442 58.9301C93.8395 58.9301 94.6094 59.6798 94.6094 61.0983V67.076H97V60.5309C97 58.2209 95.7236 56.7619 93.2925 56.7619C91.773 56.7619 90.5777 57.4914 90.0915 58.6667C89.5445 57.4914 88.4505 56.7619 86.7892 56.7619C85.6141 56.7619 84.5606 57.309 83.9731 58.2006L83.8515 57.0659H81.5825V67.076H84.0541Z" class="cneutral" fill="#152C4F"></path> <path d="M45.487 38.3523C42.2308 44.2121 35.6009 47 28.8971 47H2C30 43.5 49.5 29.5 52 10C54.5 29.5 74 43.5 102 47H75.1029C68.3991 47 61.7692 44.2121 58.513 38.3523C54.9886 32.01 52.7432 24.8334 52 17C51.2568 24.8334 49.0114 32.01 45.487 38.3523Z" class="ccustom" fill="#1A4688"></path> <path d="M30.1051 36.2813C28.5344 37.1656 26.8822 37.9962 25.1522 38.7699C24.1695 35.3753 23.8079 31.8138 24.0963 28.266C24.4778 23.5725 25.9851 19.0476 28.4847 15.0923C30.9844 11.137 34.3991 7.87319 38.4265 5.59008C42.4539 3.30698 46.9697 2.07501 51.5738 2.00332C56.1779 1.93162 60.7282 3.02241 64.8217 5.17906C68.9152 7.3357 72.4255 10.4916 75.0416 14.3673C77.6578 18.243 79.2991 22.7188 79.8202 27.3982C80.2463 31.2257 79.9123 35.0929 78.8478 38.7699C77.1178 37.9962 75.4656 37.1655 73.8949 36.2812C74.5571 33.593 74.7427 30.7964 74.4342 28.0256C74.014 24.2521 72.6904 20.6428 70.5808 17.5175C68.4711 14.3922 65.6404 11.8472 62.3394 10.1081C59.0384 8.36897 55.369 7.48937 51.6563 7.54718C47.9435 7.60499 44.302 8.59845 41.0544 10.4395C37.8067 12.2806 35.053 14.9125 33.0373 18.1021C31.0216 21.2917 29.8061 24.9405 29.4985 28.7254C29.2917 31.2694 29.4993 33.8222 30.1051 36.2813Z" class="ccompli1" fill="#7FB5E6"></path> </svg> -->



<svg id="logo-17" width="127" height="39" viewBox="0 0 127 39" fill="none" xmlns="http://www.w3.org/2000/svg"> <path d="M19.5 2C17.2019 2 14.9262 2.4527 12.803 3.3321C10.6798 4.2116 8.7507 5.5006 7.1256 7.1256C5.5006 8.7507 4.2116 10.6798 3.3321 12.803C2.4527 14.9262 2 17.2019 2 19.5C2 21.7981 2.4527 24.0738 3.3321 26.197C4.2116 28.3202 5.5006 30.2493 7.1256 31.8744C8.7507 33.4994 10.6798 34.7884 12.803 35.6679C14.9262 36.5473 17.2019 37 19.5 37V28.25C18.3509 28.25 17.2131 28.0237 16.1515 27.5839C15.0899 27.1442 14.1253 26.4997 13.3128 25.6872C12.5003 24.8747 11.8558 23.9101 11.4161 22.8485C10.9763 21.7869 10.75 20.6491 10.75 19.5C10.75 18.3509 10.9763 17.2131 11.4161 16.1515C11.8558 15.0899 12.5003 14.1253 13.3128 13.3128C14.1253 12.5003 15.0899 11.8558 16.1515 11.4161C17.2131 10.9763 18.3509 10.75 19.5 10.75V2Z" class="ccustom" fill="#0F52FF"></path> <path d="M19.5001 25.3333C22.7218 25.3333 25.3334 22.7217 25.3334 19.5C25.3334 16.2783 22.7218 13.6667 19.5001 13.6667C16.2784 13.6667 13.6668 16.2783 13.6668 19.5C13.6668 22.7217 16.2784 25.3333 19.5001 25.3333Z" class="ccustom" fill="#0F52FF"></path> <path d="M2 19.5C2 21.7981 2.4527 24.0738 3.3321 26.197C4.2116 28.3202 5.5006 30.2493 7.1256 31.8744C8.7507 33.4994 10.6798 34.7884 12.803 35.6679C14.9262 36.5473 17.2019 37 19.5 37C21.7981 37 24.0738 36.5473 26.197 35.6679C28.3202 34.7884 30.2493 33.4994 31.8744 31.8744C33.4994 30.2493 34.7884 28.3202 35.6679 26.197C36.5473 24.0738 37 21.7981 37 19.5H28.25C28.25 20.6491 28.0237 21.7869 27.5839 22.8485C27.1442 23.9101 26.4997 24.8747 25.6872 25.6872C24.8747 26.4997 23.9101 27.1442 22.8485 27.5839C21.7869 28.0237 20.6491 28.25 19.5 28.25C18.3509 28.25 17.2131 28.0237 16.1515 27.5839C15.0899 27.1442 14.1253 26.4997 13.3128 25.6872C12.5003 24.8747 11.8558 23.9101 11.4161 22.8485C10.9763 21.7869 10.75 20.6491 10.75 19.5H2Z" class="ccompli1" fill="#5BD0F4"></path> <path d="M25.3334 19.5C25.3334 17.9529 24.7188 16.4692 23.6249 15.3752C22.5309 14.2812 21.0472 13.6666 19.5001 13.6666C17.953 13.6666 16.4693 14.2812 15.3753 15.3752C14.2813 16.4692 13.6667 17.9529 13.6667 19.5H19.5001H25.3334Z" class="ccompli1" fill="#5BD0F4"></path> <path d="M46.1396 12.925H43.9661V25H46.1396V12.925Z" class="ccustom" fill="#0F52FF"></path> <path d="M47.5589 20.722C47.5589 23.5165 49.4909 25.2415 52.0439 25.2415C54.5969 25.2415 56.5289 23.5165 56.5289 20.722C56.5289 17.9275 54.5969 16.2025 52.0439 16.2025C49.4909 16.2025 47.5589 17.9275 47.5589 20.722ZM49.7324 20.722C49.7324 19.066 50.6984 18.1 52.0439 18.1C53.3894 18.1 54.3554 19.066 54.3554 20.722C54.3554 22.378 53.3894 23.344 52.0439 23.344C50.6984 23.344 49.7324 22.378 49.7324 20.722Z" class="ccustom" fill="#0F52FF"></path> <path d="M64.296 16.444V17.5997H64.1235C63.606 16.858 62.778 16.2025 61.2945 16.2025C59.259 16.2025 57.4305 17.9275 57.4305 20.584C57.4305 23.2405 59.259 24.9655 61.2945 24.9655C62.778 24.9655 63.606 24.2927 64.089 23.62H64.2615V24.448C64.2615 26.104 63.2955 26.863 61.881 26.863C60.4665 26.863 59.742 26.104 59.4487 25.1207L57.4995 25.966C57.948 27.2597 59.259 28.6915 61.9155 28.6915C64.641 28.6915 66.435 27.2597 66.435 24.4997V16.444H64.296ZM61.95 23.1025C60.6045 23.1025 59.604 22.1365 59.604 20.584C59.604 19.0315 60.6045 18.0655 61.95 18.0655C63.2955 18.0655 64.296 19.0315 64.296 20.584C64.296 22.1365 63.2955 23.1025 61.95 23.1025Z" class="ccustom" fill="#0F52FF"></path> <path d="M67.8411 20.722C67.8411 23.5165 69.7731 25.2415 72.3261 25.2415C74.8791 25.2415 76.811 23.5165 76.811 20.722C76.811 17.9275 74.8791 16.2025 72.3261 16.2025C69.7731 16.2025 67.8411 17.9275 67.8411 20.722ZM70.0146 20.722C70.0146 19.066 70.9806 18.1 72.3261 18.1C73.6716 18.1 74.6376 19.066 74.6376 20.722C74.6376 22.378 73.6716 23.344 72.3261 23.344C70.9806 23.344 70.0146 22.378 70.0146 20.722Z" class="ccustom" fill="#0F52FF"></path> <path d="M78.517 13.96C78.517 14.8398 79.19 15.4435 80.053 15.4435C80.915 15.4435 81.588 14.8398 81.588 13.96C81.588 13.0803 80.915 12.4765 80.053 12.4765C79.19 12.4765 78.517 13.0803 78.517 13.96ZM81.139 16.444H78.966V25H81.139V16.444Z" class="ccompli1" fill="#5BD0F4"></path> <path d="M83.076 28.45H85.25V23.896H85.422C85.905 24.586 86.733 25.2415 88.217 25.2415C90.252 25.2415 92.081 23.5165 92.081 20.722C92.081 17.9275 90.252 16.2025 88.217 16.2025C86.733 16.2025 85.905 16.858 85.388 17.5998H85.215V16.444H83.076V28.45ZM87.561 23.3785C86.216 23.3785 85.215 22.4125 85.215 20.722C85.215 19.0315 86.216 18.0655 87.561 18.0655C88.907 18.0655 89.907 19.0315 89.907 20.722C89.907 22.4125 88.907 23.3785 87.561 23.3785Z" class="ccompli1" fill="#5BD0F4"></path> <path d="M93.349 18.8418C93.349 20.5323 94.763 21.1533 96.557 21.4983L97.006 21.5845C98.075 21.7915 98.558 22.0503 98.558 22.6023C98.558 23.1543 98.075 23.5855 97.075 23.5855C96.074 23.5855 95.264 23.1715 95.039 21.9295L93.038 22.447C93.332 24.241 94.832 25.2415 97.075 25.2415C99.248 25.2415 100.663 24.2238 100.663 22.4298C100.663 20.6357 99.214 20.1528 97.282 19.7733L96.833 19.687C95.936 19.5145 95.453 19.273 95.453 18.7038C95.453 18.1863 95.902 17.8585 96.73 17.8585C97.558 17.8585 98.144 18.2035 98.351 19.135L100.318 18.5313C99.904 17.1513 98.645 16.2025 96.73 16.2025C94.694 16.2025 93.349 17.1513 93.349 18.8418Z" class="ccompli1" fill="#5BD0F4"></path> <path d="M110.426 25V16.444H108.253V20.86C108.253 22.447 107.477 23.3785 106.148 23.3785C104.975 23.3785 104.32 22.7403 104.32 21.4465V16.444H102.146V21.55C102.146 23.6718 103.475 25.138 105.476 25.138C107.045 25.138 107.77 24.448 108.115 23.7235H108.287V25H110.426Z" class="ccompli1" fill="#5BD0F4"></path> <path d="M112.354 16.444V25H114.528V19.894C114.528 18.721 115.08 18.0655 116.08 18.0655C116.943 18.0655 117.46 18.5485 117.46 19.48V25H119.634V19.894C119.634 18.721 120.186 18.0655 121.186 18.0655C122.049 18.0655 122.566 18.5485 122.566 19.48V25H124.74V19.3765C124.74 17.3065 123.463 16.306 121.876 16.306C120.479 16.306 119.841 16.927 119.427 17.6515H119.254C118.857 16.8408 118.15 16.306 116.908 16.306C115.666 16.306 114.993 16.858 114.666 17.5135H114.493V16.444H112.354Z" class="ccompli1" fill="#5BD0F4"></path> </svg>